<svg id="Groupe_9173" data-name="Groupe 9173" xmlns="http://www.w3.org/2000/svg" xmlns:xlink="http://www.w3.org/1999/xlink" width="157.257" height="81.817" viewBox="0 0 157.257 81.817">
  <defs>
    <clipPath id="clip-path">
      <path id="Tracé_1" data-name="Tracé 1" d="M173.639,66.567h.006l-.006-4.043Z" transform="translate(-173.639 -62.524)" fill="#fff"/>
    </clipPath>
    <clipPath id="clip-path-2">
      <path id="Tracé_2" data-name="Tracé 2" d="M57.484,26.083q0-.391.036-.907a2.855,2.855,0,0,1,.231-.96,1.909,1.909,0,0,1,.623-.764,2.443,2.443,0,0,1,2.418,0,2.072,2.072,0,0,1,.64.764,2.619,2.619,0,0,1,.248.96q.036.517.036.907v8.109l-4.233,1.245ZM83.918,50c-.065-.08-.133-.162-.133-.519V24.438c0-.261-.028-.563,0-.907a2.756,2.756,0,0,1,.276-1,2,2,0,0,1,.731-.8,2.517,2.517,0,0,1,1.3-.318l.145,0a27.963,27.963,0,0,1,4.244.3,2.269,2.269,0,0,1,.8.747,2.9,2.9,0,0,1,.386.943,3.948,3.948,0,0,1,0,.924v8.637l-.053.017.006,4.043.017,12.2v.248a.672.672,0,0,1-.162.519c-.568.7-2.279,1.086-3.516,1.086-.013,0-.275.025-.275.025l-.109-.022h-.177c-1.056,0-2.9-.388-3.473-1.088M32.855,27.7a12.013,12.013,0,0,1,7.483-6.771,12.972,12.972,0,0,1,.156,9.94,11.794,11.794,0,0,1-6.082,6.226c.628-1.245,1.259-2.617,1.864-4.073a34.838,34.838,0,0,0,2.309-7.17c-.1-.3-.526-.13-.526-.13-2.894,9.064-4.326,9.791-5.512,11.3a14.075,14.075,0,0,1,.307-9.326M98.809,0l-7.15,2.209V16.75a8.806,8.806,0,0,0-1.467-1.044,8.112,8.112,0,0,0-4.066-.943c-.162,0-.324.01-.487.015s-.323-.015-.486-.015a7.86,7.86,0,0,0-6.734,3.308,9.609,9.609,0,0,0-1.463,3.112,12.437,12.437,0,0,0-.443,3.219V49.477c0,.357-.073.439-.138.519-.588.722-2.466,1.071-3.6,1.086H68.554V51.1h-.136a13.251,13.251,0,0,0,.269-2.177V43.479H61.716v5.157c0,.261-.012.564-.036.907a3.219,3.219,0,0,1-.231,1,1.861,1.861,0,0,1-.421.541l1.7.015-5.262,0V39.212c0,.012,0,.021,0,.032l.011,2.667,11.2-3.2v-12.8a14.053,14.053,0,0,0-.391-3.2,8.216,8.216,0,0,0-1.422-3.059,7.765,7.765,0,0,0-2.792-2.276,9.964,9.964,0,0,0-4.5-.889,9.8,9.8,0,0,0-4.5.907,7.751,7.751,0,0,0-2.774,2.294,8.363,8.363,0,0,0-1.4,3.04,13.759,13.759,0,0,0-.418,3.147V51.09l-5.045,0a13.2,13.2,0,0,0,.266-2.166V43.479H38.736v5.157c0,.261-.012.564-.036.907a3.234,3.234,0,0,1-.231,1,1.87,1.87,0,0,1-.421.541l.452,0-3.978,0c-.011-.219-.018-.425-.018-.6V41.91l.065-.018A15.358,15.358,0,0,0,45.707,27.124V25.905a14.053,14.053,0,0,0-.391-3.2,8.218,8.218,0,0,0-1.423-3.059A7.768,7.768,0,0,0,41.1,17.369a9.966,9.966,0,0,0-4.5-.889,9.793,9.793,0,0,0-4.5.907,7.753,7.753,0,0,0-2.774,2.294,8.371,8.371,0,0,0-1.4,3.04,13.7,13.7,0,0,0-.391,3.147V50.8c0,.079.008.161.012.242l-3.067-.028-3.719-.025c-.014-.436-.022-.918-.029-1.4L20.718,46.1l-.011-3.281a16.167,16.167,0,0,0-1.044-6A11.693,11.693,0,0,0,16.814,32.5l-.1-.1-2.068-2.082L10.8,26.442a17.255,17.255,0,0,1-1.2-1.244,5.778,5.778,0,0,1-.862-1.324,6.931,6.931,0,0,1-.522-1.666,11.689,11.689,0,0,1-.181-2.187l-.04-6.862a4.152,4.152,0,0,1,.442-2.247,2.159,2.159,0,0,1,2.006-.8,2.023,2.023,0,0,1,1.785.722,3.986,3.986,0,0,1,.5,2.247v8.949h8.026v-9.39a10.8,10.8,0,0,0-2.468-7.464Q15.811,2.4,10.554,2.4,5.5,2.4,2.749,4.852T0,12.4v9.711a20.264,20.264,0,0,0,.221,3.131,10.985,10.985,0,0,0,2.027,4.916,14.231,14.231,0,0,0,2.006,2.187l1,.958h0L6.4,34.4l3.115,3a11.549,11.549,0,0,1,1.189,1.31c.118.144.293.292.4.436.06.082.085.171.141.254a7.467,7.467,0,0,1,1.343,3.377,14.445,14.445,0,0,1,.141,2.086V53.73a5.121,5.121,0,0,1-.442,2.287,1.939,1.939,0,0,1-1.927.883A3.065,3.065,0,0,1,9.5,56.75,1.527,1.527,0,0,1,8.387,56a6.056,6.056,0,0,1-.4-2.405c0-.008,0-.014,0-.023V44.913H0v9.138a17.325,17.325,0,0,0,.121,2.037A15.291,15.291,0,0,0,.5,58.145,8.319,8.319,0,0,0,1.74,60.777a7.805,7.805,0,0,0,.467.7,7.294,7.294,0,0,0,.763.684A8.614,8.614,0,0,0,5.418,63.7a13.149,13.149,0,0,0,4.976.823,13.119,13.119,0,0,0,4.735-.762,8.567,8.567,0,0,0,3.208-2.085l0,0a8.113,8.113,0,0,0,1.605-2.618l48.643.09v.016h4.331a11.943,11.943,0,0,0,7.228-2.393,12.124,12.124,0,0,0,7.446,2.389l.418,0a12.256,12.256,0,0,0,6.947-2.141c2.752,2.436,10.705,6.593,7.51,2.63s-3.63-10.768-3.63-10.768v.027l-.009-18.218h0l-.016.005Z" transform="translate(0)" fill="#fff"/>
    </clipPath>
    <clipPath id="clip-path-3">
      <rect id="Rectangle_3" data-name="Rectangle 3" width="157.257" height="81.817" fill="#fff"/>
    </clipPath>
  </defs>
  <g id="Groupe_2" data-name="Groupe 2" transform="translate(91.606 32.985)">
    <g id="Groupe_1" data-name="Groupe 1" clip-path="url(#clip-path)">
      <rect id="Rectangle_1" data-name="Rectangle 1" width="0.006" height="4.043" transform="translate(0 0)" fill="#fff"/>
    </g>
  </g>
  <g id="Groupe_4" data-name="Groupe 4" transform="translate(0)">
    <g id="Groupe_3" data-name="Groupe 3" clip-path="url(#clip-path-2)">
      <rect id="Rectangle_2" data-name="Rectangle 2" width="105.662" height="64.525" transform="translate(0 0)" fill="#fff"/>
    </g>
  </g>
  <g id="Groupe_6" data-name="Groupe 6" transform="translate(0)">
    <g id="Groupe_5" data-name="Groupe 5" clip-path="url(#clip-path-3)">
      <path id="Tracé_3" data-name="Tracé 3" d="M99.263,136.728a7.711,7.711,0,0,1-1.176.395,6.071,6.071,0,0,1-1.506.172,5.324,5.324,0,0,1-1.418-.193,4.037,4.037,0,0,1-1.253-.577,3.053,3.053,0,0,1-.9-.981,2.735,2.735,0,0,1-.35-1.407v-6.76a2.855,2.855,0,0,1,.375-1.457,3.733,3.733,0,0,1,.973-1.1,4.275,4.275,0,0,1,1.363-.688,5.222,5.222,0,0,1,1.524-.233,5.112,5.112,0,0,1,2.1.415,4.287,4.287,0,0,1,1.574,1.184l-1.224,1.741a3.492,3.492,0,0,0-1.32-.931,3.434,3.434,0,0,0-1.088-.223,2.147,2.147,0,0,0-.69.121,2.567,2.567,0,0,0-.65.324,1.832,1.832,0,0,0-.486.5,1.105,1.105,0,0,0-.194.617v6.174a1.071,1.071,0,0,0,.528.961,2.56,2.56,0,0,0,1.387.334,2.01,2.01,0,0,0,.41-.051,4.651,4.651,0,0,0,.478-.132,3.2,3.2,0,0,0,.46-.192,2.624,2.624,0,0,0,.352-.213v-2.408H96.659v-2.125h4.119v7.428Z" transform="translate(-43.774 -58.533)" fill="#fff"/>
      <path id="Tracé_4" data-name="Tracé 4" d="M115.429,132.42a1.608,1.608,0,0,0-.768-.466,1.324,1.324,0,0,0-1.263.365,2.047,2.047,0,0,0-.379.506v7.063H110.8v-7.873a1.937,1.937,0,0,0-.116-.637,1.036,1.036,0,0,0-.428-.536l1.438-1.032a1.449,1.449,0,0,1,.514.415,2.485,2.485,0,0,1,.4.7,1.967,1.967,0,0,1,.777-.891,2.108,2.108,0,0,1,1.107-.3,2.774,2.774,0,0,1,1.049.183,2.47,2.47,0,0,1,.7.4Z" transform="translate(-52.091 -61.288)" fill="#fff"/>
      <path id="Tracé_5" data-name="Tracé 5" d="M128.6,140.151q-.408-.182-.65-.313a1.534,1.534,0,0,1-.457-.395,3.9,3.9,0,0,1-1.107.455,4.87,4.87,0,0,1-1.108.131,3.894,3.894,0,0,1-1.505-.264,2.919,2.919,0,0,1-1.03-.691,2.63,2.63,0,0,1-.583-.984,3.619,3.619,0,0,1-.185-1.147,3.475,3.475,0,0,1,.214-1.2,3.328,3.328,0,0,1,.632-1.066,2.977,2.977,0,0,1,1.068-.762,3.8,3.8,0,0,1,1.525-.284h1.5V133a1.288,1.288,0,0,0-.117-.575.975.975,0,0,0-.311-.376,1.264,1.264,0,0,0-.437-.2,2.106,2.106,0,0,0-.5-.059,3.169,3.169,0,0,0-.981.212,2.946,2.946,0,0,0-1.118.719L122.4,131.1a4.436,4.436,0,0,1,1.341-.95,4.494,4.494,0,0,1,2-.419,3.36,3.36,0,0,1,2.555.911,3.44,3.44,0,0,1,.864,2.469v4.715a1.129,1.129,0,0,0,.136.5,3.449,3.449,0,0,0,.583.739Zm-1.69-4.452-1.2-.021a1.5,1.5,0,0,0-1.049.324,1.227,1.227,0,0,0-.408.749,1.272,1.272,0,0,0,.146.8.877.877,0,0,0,.651.455,2.064,2.064,0,0,0,.932-.01,3.062,3.062,0,0,0,.933-.456Z" transform="translate(-57.624 -61.288)" fill="#fff"/>
      <path id="Tracé_6" data-name="Tracé 6" d="M141.6,123.206a1.435,1.435,0,0,1-.408,1.032,1.367,1.367,0,0,1-1.982,0,1.51,1.51,0,0,1,0-2.064,1.369,1.369,0,0,1,1.982,0,1.435,1.435,0,0,1,.408,1.032m-.292,12.913h-2.234v-9.977h2.234Z" transform="translate(-65.575 -57.518)" fill="#fff"/>
      <path id="Tracé_7" data-name="Tracé 7" d="M154.242,139.888h-2.253v-6.76a1.386,1.386,0,0,0-.37-1.032,1.4,1.4,0,0,0-1.029-.364,2.081,2.081,0,0,0-.972.213,4.5,4.5,0,0,0-.816.557v7.387h-2.253v-7.832a2.24,2.24,0,0,0-.136-.638,1.409,1.409,0,0,0-.466-.678l1.613-.911a1.382,1.382,0,0,1,.505.445,1.187,1.187,0,0,1,.213.425,3.717,3.717,0,0,1,1.272-.709,4.583,4.583,0,0,1,1.487-.263,2.955,2.955,0,0,1,3.205,3.238Z" transform="translate(-68.95 -61.288)" fill="#fff"/>
      <path id="Tracé_8" data-name="Tracé 8" d="M171.573,138.745q-.427.3-.826.541a5.378,5.378,0,0,1-.835.411,5.11,5.11,0,0,1-.923.261,5.86,5.86,0,0,1-1.068.09,4.92,4.92,0,0,1-1.477-.213,3.266,3.266,0,0,1-1.165-.627,2.818,2.818,0,0,1-.758-1.042,3.634,3.634,0,0,1-.272-1.458v-3.319a4.26,4.26,0,0,1,.282-1.619,2.988,2.988,0,0,1,.787-1.133,3.212,3.212,0,0,1,1.185-.657,4.917,4.917,0,0,1,1.476-.213,4.544,4.544,0,0,1,1.331.193,3.086,3.086,0,0,1,1.117.607,2.942,2.942,0,0,1,.777,1.083,4.029,4.029,0,0,1,.291,1.619V135.7H166.5v.654a1.637,1.637,0,0,0,.419,1.226,1.566,1.566,0,0,0,1.141.408,3.377,3.377,0,0,0,1.2-.232,4.789,4.789,0,0,0,1.336-.84Zm-2.331-5.72a1.274,1.274,0,0,0-.119-.567,1.138,1.138,0,0,0-.305-.395,1.241,1.241,0,0,0-.414-.223,1.416,1.416,0,0,0-.424-.071,1.553,1.553,0,0,0-1.064.365,1.3,1.3,0,0,0-.414,1.032v.506h2.74Z" transform="translate(-77.597 -61.306)" fill="#fff"/>
      <path id="Tracé_9" data-name="Tracé 9" d="M195.905,137.519q-.427-.162-.68-.273a1.511,1.511,0,0,1-.427-.273,5.589,5.589,0,0,1-2.39.465,4.264,4.264,0,0,1-1.389-.223,3.465,3.465,0,0,1-1.146-.648,2.988,2.988,0,0,1-.778-1.042,3.417,3.417,0,0,1-.282-1.428v-3.6a3.055,3.055,0,0,1,3.284-3.36,4.015,4.015,0,0,1,.418.03,4.688,4.688,0,0,1,.553.1,4.456,4.456,0,0,1,.573.18,2.19,2.19,0,0,1,.476.251v-3.456h2.215v10.646a2.239,2.239,0,0,0,.059.485,1.839,1.839,0,0,0,.2.517.876.876,0,0,0,.437.375Zm-1.787-2.531v-5.259a1.971,1.971,0,0,0-.8-.405,3.326,3.326,0,0,0-.836-.122,1.619,1.619,0,0,0-.972.325,1.316,1.316,0,0,0-.446,1.137v3.35a1.312,1.312,0,0,0,.136.61,1.387,1.387,0,0,0,.359.446,1.538,1.538,0,0,0,.5.274,1.7,1.7,0,0,0,.544.091,4.142,4.142,0,0,0,.68-.061,2.591,2.591,0,0,0,.836-.325Z" transform="translate(-89.202 -58.696)" fill="#fff"/>
      <path id="Tracé_10" data-name="Tracé 10" d="M209.209,127.229a4.856,4.856,0,0,1-1.9,1.74l-.778-.749a3.245,3.245,0,0,0,.729-.809,3.019,3.019,0,0,0,.32-.769,1.4,1.4,0,0,1-.632-.557,1.389,1.389,0,0,1-.185-.678,1.282,1.282,0,0,1,.418-.951,1.363,1.363,0,0,1,.981-.4,1.292,1.292,0,0,1,.962.344,1.67,1.67,0,0,1,.447.84,2.585,2.585,0,0,1,0,1.042,2.808,2.808,0,0,1-.359.952" transform="translate(-97.571 -58.606)" fill="#fff"/>
      <path id="Tracé_11" data-name="Tracé 11" d="M222.469,138.745q-.427.3-.826.541a5.381,5.381,0,0,1-.835.411,5.111,5.111,0,0,1-.923.261,5.861,5.861,0,0,1-1.068.09,4.92,4.92,0,0,1-1.477-.213,3.274,3.274,0,0,1-1.166-.627,2.823,2.823,0,0,1-.758-1.042,3.635,3.635,0,0,1-.272-1.458v-3.319a4.271,4.271,0,0,1,.282-1.619,3,3,0,0,1,.788-1.133,3.212,3.212,0,0,1,1.185-.657,4.917,4.917,0,0,1,1.476-.213,4.545,4.545,0,0,1,1.331.193,3.086,3.086,0,0,1,1.117.607,2.942,2.942,0,0,1,.777,1.083,4.029,4.029,0,0,1,.291,1.619V135.7H217.4v.654a1.637,1.637,0,0,0,.419,1.226,1.566,1.566,0,0,0,1.141.408,3.377,3.377,0,0,0,1.2-.232,4.779,4.779,0,0,0,1.336-.84Zm-2.332-5.72a1.275,1.275,0,0,0-.118-.567,1.138,1.138,0,0,0-.305-.395,1.242,1.242,0,0,0-.414-.223,1.416,1.416,0,0,0-.424-.071,1.553,1.553,0,0,0-1.064.365,1.3,1.3,0,0,0-.414,1.032v.506h2.739Z" transform="translate(-101.642 -61.306)" fill="#fff"/>
      <path id="Tracé_12" data-name="Tracé 12" d="M236.641,132.721a2.911,2.911,0,0,0-.991-.719,3.374,3.374,0,0,0-.913-.233,1.63,1.63,0,0,0-.855.152.735.735,0,0,0-.447.637.686.686,0,0,0,.311.658,3.716,3.716,0,0,0,.8.375q.757.284,1.38.557a4.589,4.589,0,0,1,1.223.82,2.211,2.211,0,0,1,.622.972,2.987,2.987,0,0,1,.136,1.224,3.32,3.32,0,0,1-.36,1.224,2.662,2.662,0,0,1-.845.972,3.323,3.323,0,0,1-1.058.516,5.185,5.185,0,0,1-1.429.172,4.2,4.2,0,0,1-1.962-.425,4.644,4.644,0,0,1-1.38-1.073l1.321-1.578a2.826,2.826,0,0,0,1.01.789,2.488,2.488,0,0,0,1.01.283,2.357,2.357,0,0,0,.933-.182.98.98,0,0,0,.563-.709.717.717,0,0,0-.165-.7,2.227,2.227,0,0,0-.729-.475c-.3-.135-.6-.253-.894-.354s-.583-.213-.855-.334a4.214,4.214,0,0,1-.758-.435,2.067,2.067,0,0,1-.582-.658,2.821,2.821,0,0,1-.37-.951,3.1,3.1,0,0,1-.029-1.012,2.8,2.8,0,0,1,.311-.961,2.466,2.466,0,0,1,.651-.78,3.173,3.173,0,0,1,1.146-.566,5.218,5.218,0,0,1,1.322-.163,3.693,3.693,0,0,1,1.8.375,5.529,5.529,0,0,1,1.117.8Z" transform="translate(-109.071 -61.306)" fill="#fff"/>
      <path id="Tracé_13" data-name="Tracé 13" d="M253.929,136.569a3.652,3.652,0,0,1-.282,1.488,3.347,3.347,0,0,1-.748,1.083,3.023,3.023,0,0,1-1.1.668,3.975,3.975,0,0,1-1.331.223,5.08,5.08,0,0,1-.894-.1,3.711,3.711,0,0,1-.99-.324v3.5h-2.254V132.148a2.094,2.094,0,0,0-.029-.293,1.9,1.9,0,0,0-.107-.4,2.422,2.422,0,0,0-.194-.4,1.009,1.009,0,0,0-.292-.314l1.71-.961c.129.094.249.189.359.283a1.48,1.48,0,0,1,.321.445,1.855,1.855,0,0,1,.5-.324,4.93,4.93,0,0,1,.661-.243,6.229,6.229,0,0,1,.709-.161,3.93,3.93,0,0,1,.652-.061,3.27,3.27,0,0,1,2.428.881,3.424,3.424,0,0,1,.874,2.52Zm-2.254-3.335a1.424,1.424,0,0,0-.391-1.046,1.3,1.3,0,0,0-.959-.4,2.592,2.592,0,0,0-.9.193,2.259,2.259,0,0,0-.84.538v4.832a2.807,2.807,0,0,0,.723.387,2.524,2.524,0,0,0,.9.162,1.544,1.544,0,0,0,1.016-.376,1.264,1.264,0,0,0,.45-1.026Z" transform="translate(-116.082 -61.288)" fill="#fff"/>
      <path id="Tracé_14" data-name="Tracé 14" d="M270.843,136.67a3.087,3.087,0,0,1-.33,1.458,3.226,3.226,0,0,1-.874,1.052,3.789,3.789,0,0,1-1.243.638,4.863,4.863,0,0,1-1.419.212,4.768,4.768,0,0,1-1.409-.212,3.8,3.8,0,0,1-1.233-.638,3.223,3.223,0,0,1-.875-1.052,3.088,3.088,0,0,1-.33-1.458v-3.582a3.042,3.042,0,0,1,.33-1.437,3.219,3.219,0,0,1,.875-1.052,3.972,3.972,0,0,1,1.233-.648,4.565,4.565,0,0,1,1.409-.222,4.656,4.656,0,0,1,1.419.222,3.958,3.958,0,0,1,1.243.648,3.222,3.222,0,0,1,.874,1.052,3.042,3.042,0,0,1,.33,1.437Zm-2.254-3.522a1.271,1.271,0,0,0-.492-1.042,1.715,1.715,0,0,0-1.1-.395,1.754,1.754,0,0,0-1.111.395,1.261,1.261,0,0,0-.5,1.042v3.461a1.259,1.259,0,0,0,.5,1.042,1.754,1.754,0,0,0,1.111.395,1.715,1.715,0,0,0,1.1-.395,1.27,1.27,0,0,0,.492-1.042Z" transform="translate(-124.312 -61.288)" fill="#fff"/>
      <path id="Tracé_15" data-name="Tracé 15" d="M282.389,123.206a1.437,1.437,0,0,1-.408,1.032,1.368,1.368,0,0,1-1.982,0,1.509,1.509,0,0,1,0-2.064,1.369,1.369,0,0,1,1.982,0,1.437,1.437,0,0,1,.408,1.032m-.292,12.913h-2.234v-9.977H282.1Z" transform="translate(-132.089 -57.518)" fill="#fff"/>
      <path id="Tracé_16" data-name="Tracé 16" d="M291.906,132.42a1.608,1.608,0,0,0-.768-.466,1.324,1.324,0,0,0-1.263.365,2.049,2.049,0,0,0-.379.506v7.063h-2.215v-7.873a1.938,1.938,0,0,0-.116-.637,1.036,1.036,0,0,0-.428-.536l1.438-1.032a1.448,1.448,0,0,1,.514.415,2.483,2.483,0,0,1,.4.7,1.966,1.966,0,0,1,.777-.891,2.108,2.108,0,0,1,1.107-.3,2.774,2.774,0,0,1,1.049.183,2.47,2.47,0,0,1,.7.4Z" transform="translate(-135.465 -61.288)" fill="#fff"/>
    </g>
  </g>
</svg>
